#!OML:ASF H:\GeneralSubjects\Female5\Project 1\Capture day 1\Session 1\Female5.ASF
:FULLY-SPECIFIED
:DEGREES
165
root 3.86094 15.3901 0.659994 -200.336 -97.2838 211.786
lowerback 13.4302 1.68959 -7.85991
upperback -9.37325 0.216328 -1.19547
thorax -18.6352 0.909742 2.98426
lowerneck -19.6844 -1.52133 0.428077
upperneck 16.6832 -1.15613 -5.30731
head 8.40157 -1.11151 -2.01582
rclavicle 1.65364e-014 2.38542e-014
rhumerus -59.6252 20.4802 -88.7818
rradius 60.0491
rwrist -14.1076
rhand -29.0565 -17.8415
rfingers 7.12502
rthumb -2.40629 -47.8077
lclavicle 1.65364e-014 2.38542e-014
lhumerus -58.437 -12.8008 84.9634
lradius 88.5906
lwrist 0.207899
lhand -32.4222 42.5943
lfingers 7.12502
lthumb -5.65635 72.4988
rfemur -12.723 -15.0554 18.8908
rtibia 59.8863
rfoot -11.197 -18.7984
rtoes -8.37442
lfemur -23.6971 -17.1962 -37.4367
ltibia 32.7677
lfoot -12.6377 -16.2223
ltoes -15.4281
166
root 3.2316 15.3559 0.604724 -190.517 -96.8209 202.626
lowerback 13.8769 1.44911 -6.74609
upperback -9.62625 0.116125 -0.95333
thorax -19.215 0.768138 2.66689
lowerneck -20.8128 -1.28134 0.364339
upperneck 17.176 -0.980104 -4.29189
head 8.7758 -0.932848 -1.6607
rclavicle -5.86415e-015 -1.37161e-014
rhumerus -62.1814 18.3341 -88.6689
rradius 57.4659
rwrist -13.2527
rhand -28.3437 -20.2561
rfingers 7.12502
rthumb -1.71784 -50.2289
lclavicle -5.86415e-015 -1.37161e-014
lhumerus -55.8251 -14.0986 85.9175
lradius 89.5793
lwrist -0.586664
lhand -33.1972 41.0968
lfingers 7.12502
lthumb -6.40462 70.98
rfemur -20.4893 -13.799 21.3458
rtibia 64.0645
rfoot -15.6249 -15.9581
rtoes -13.3275
lfemur -21.8098 -15.5114 -35.8836
ltibia 32.2876
lfoot -12.1423 -17.4181
ltoes -15.9367
167
root 2.591 15.3494 0.570685 -185.127 -96.2519 197.693
lowerback 14.1222 1.33596 -5.8929
upperback -9.71176 0.135971 -0.922586
thorax -19.4673 0.674994 2.21541
lowerneck -21.6145 -0.905459 0.945755
upperneck 17.1442 -0.657421 -4.17616
head 8.9099 -0.732271 -1.68147
rclavicle -1.55301e-015 7.15625e-015
rhumerus -64.793 16.2471 -88.4662
rradius 56.0102
rwrist -14.028
rhand -28.4128 -19.7171
rfingers 7.12502
rthumb -1.78462 -49.6893
lclavicle -1.55301e-015 7.15625e-015
lhumerus -53.0809 -15.3304 86.7597
lradius 91.287
lwrist 0.356606
lhand -32.1893 39.3517
lfingers 7.12502
lthumb -5.43155 69.2621
rfemur -27.7217 -11.9245 22.9141
rtibia 66.7658
rfoot -17.8753 -14.5668
rtoes -15.6409
lfemur -19.4205 -14.5305 -34.9745
ltibia 31.7188
lfoot -12.5544 -18.6236
ltoes -17.2249
168
root 1.92474 15.3652 0.540389 -187.491 -95.604 200.297
lowerback 14.1559 1.17402 -6.25369
upperback -9.66625 -0.141896 -0.752919
thorax -19.4129 0.616799 2.70441
lowerneck -22.079 -0.217313 1.54903
upperneck 16.8971 0.171379 -4.55128
head 8.93078 -0.347833 -1.79696
rclavicle 8.69683e-015 -1.94809e-014
rhumerus -67.3336 15.3387 -88.4882
rradius 55.5182
rwrist -16.303
rhand -29.1549 -18.7821
rfingers 7.12502
rthumb -2.50127 -48.7472
lclavicle 8.69683e-015 -1.94809e-014
lhumerus -50.4412 -15.8402 87.9187
lradius 93.1704
lwrist 1.46341
lhand -31.8028 39.7717
lfingers 7.12502
lthumb -5.05835 69.6913
rfemur -33.8349 -9.68903 23.2411
rtibia 67.3001
rfoot -18.5313 -14.4672
rtoes -16.5864
lfemur -16.329 -14.112 -35.1761
ltibia 30.8306
lfoot -13.818 -19.4639
ltoes -17.531
169
root 1.22411 15.4051 0.509738 -191.813 -95.0327 204.696
lowerback 13.9786 0.928457 -6.84798
upperback -9.64085 -0.540246 -0.390036
thorax -19.2262 0.551259 3.5886
lowerneck -21.6927 0.8567 2.80624
upperneck 16.3105 1.44955 -5.59562
head 8.7252 0.224812 -2.17736
rclavicle -4.72735e-015 1.68967e-014
rhumerus -69.8991 15.1195 -88.4911
rradius 55.1501
rwrist -18.8708
rhand -29.1703 -18.067
rfingers 7.12502
rthumb -2.51615 -48.0319
lclavicle -4.72735e-015 1.68967e-014
lhumerus -48.002 -15.831 89.1945
lradius 94.765
lwrist 1.81735
lhand -31.2964 39.6941
lfingers 7.12502
lthumb -4.56935 69.6248
rfemur -38.6318 -7.35723 23.1604
rtibia 65.4969
rfoot -18.7216 -14.7739
rtoes -17.606
lfemur -12.4286 -14.0858 -35.6849
ltibia 29.0314
lfoot -15.3321 -19.5325
ltoes -18.7402
170
root 0.492125 15.4762 0.484932 -190.145 -94.4235 202.978
lowerback 13.835 0.495002 -6.9707
upperback -9.66713 -1.04018 0.292348
thorax -19.0892 0.412669 4.6131
lowerneck -21.3881 1.85608 3.1123
upperneck 15.7822 2.82961 -6.20816
head 8.57338 0.832594 -2.2433
rclavicle -6.31763e-015 8.05078e-015
rhumerus -72.3283 15.8048 -88.7765
rradius 54.6366
rwrist -21.1425
rhand -28.461 -18.9219
rfingers 7.12502
rthumb -1.83114 -48.8938
lclavicle -6.31763e-015 8.05078e-015
lhumerus -45.9146 -15.4051 90.4287
lradius 96.1865
lwrist 2.03598
lhand -31.2642 37.7328
lfingers 7.12502
lthumb -4.53828 67.6642
rfemur -42.2827 -5.05821 23.5214
rtibia 62.207
rfoot -19.7247 -15.3401
rtoes -20.9524
lfemur -7.49751 -14.7506 -35.8154
ltibia 25.7411
lfoot -16.6875 -18.4566
ltoes -21.5679
171
root -0.266046 15.5754 0.454732 -185.133 -93.8923 197.819
lowerback 13.5478 0.185571 -6.50136
upperback -9.73916 -1.27074 0.746814
thorax -18.9417 0.287827 4.94756
lowerneck -20.9517 2.5384 3.2376
upperneck 15.6475 3.76101 -6.37905
head 8.50705 1.26722 -2.19514
rclavicle -1.22982e-014 1.2424e-014
rhumerus -74.6477 16.0434 -89.1871
rradius 53.7669
rwrist -22.8001
rhand -28.3157 -19.048
rfingers 7.12502
rthumb -1.69084 -49.021
lclavicle -1.22982e-014 1.2424e-014
lhumerus -44.4371 -15.9629 91.6927
lradius 97.9398
lwrist 2.00836
lhand -30.9227 37.1365
lfingers 7.12502
lthumb -4.20854 67.0747
rfemur -43.9744 -2.69754 23.9436
rtibia 56.3695
rfoot -27.7659 -10.1193
rtoes 16.1966
lfemur -1.69704 -16.0572 -36.0824
ltibia 21.1733
lfoot -18.1346 -16.1193
ltoes -23.7333
172
root -1.05015 15.6888 0.404926 -181.255 -93.5063 193.819
lowerback 13.1863 -0.0986979 -6.31613
upperback -9.83901 -1.56527 1.01149
thorax -18.7778 0.149076 5.23138
lowerneck -20.6915 3.21635 3.87261
upperneck 15.8904 4.54214 -6.48234
head 8.60264 1.66385 -2.23066
rclavicle -6.85458e-015 -1.3418e-015
rhumerus -76.4129 15.9548 -89.3666
rradius 52.7348
rwrist -22.1107
rhand -26.1873 -21.4261
rfingers 7.12502
rthumb 0.364836 -51.4055
lclavicle -6.85458e-015 -1.3418e-015
lhumerus -43.6358 -17.1703 92.6542
lradius 99.4708
lwrist 1.24574
lhand -31.4278 34.9349
lfingers 7.12502
lthumb -4.69627 64.8629
rfemur -44.3536 -0.236298 24.1177
rtibia 48.9675
rfoot -26.191 -17.4936
rtoes -11.8194
lfemur 4.21104 -17.2943 -36.7125
ltibia 16.4267
lfoot -19.0923 -12.2823
ltoes -23.5206
173
root -1.85487 15.8009 0.340532 -175.628 -93.1022 188.334
lowerback 12.4426 -0.348266 -6.168
upperback -10.1019 -1.83306 1.17029
thorax -18.5758 0.0101098 5.39042
lowerneck -20.4056 3.87587 4.90267
upperneck 16.5606 5.21332 -6.60248
head 8.85009 2.02751 -2.35363
rclavicle 7.80075e-015 -1.61513e-015
rhumerus -77.8884 15.7576 -89.6759
rradius 51.1913
rwrist -21.2756
rhand -27.8734 -18.4129
rfingers 7.12502
rthumb -1.26364 -48.3889
lclavicle 7.80075e-015 -1.61513e-015
lhumerus -43.9087 -18.6684 93.5133
lradius 101.275
lwrist 0.818934
lhand -32.8785 33.0243
lfingers 7.12502
lthumb -6.09692 62.9166
rfemur -42.8529 2.94955 24.0363
rtibia 38.8339
rfoot -27.1201 -19.3225
rtoes -12.4994
lfemur 9.33024 -17.8839 -37.1936
ltibia 12.2661
lfoot -19.444 -7.09037
ltoes -24.5412
174
root -2.67149 15.9164 0.279129 -170.622 -92.7655 183.721
lowerback 11.3293 -0.563539 -5.93158
upperback -10.4226 -2.04826 1.17725
thorax -18.2121 -0.144906 5.28714
lowerneck -20.1554 4.42356 6.09151
upperneck 17.2756 5.73145 -6.92133
head 9.13087 2.30885 -2.5922
rclavicle 3.12465e-015 1.41137e-014
rhumerus -78.8006 15.5446 -90.0778
rradius 49.7727
rwrist -20.6577
rhand -28.8161 -18.3439
rfingers 7.12502
rthumb -2.17412 -48.3125
lclavicle 3.12465e-015 1.41137e-014
lhumerus -44.9523 -19.9628 94.3126
lradius 103.265
lwrist 0.551411
lhand -34.1689 30.8617
lfingers 7.12502
lthumb -7.34259 60.7143
rfemur -41.3007 6.97939 23.1321
rtibia 28.7238
rfoot -27.0842 -19.6053
rtoes -12.6453
lfemur 13.5239 -18.0288 -37.631
ltibia 8.68983
lfoot -19.9027 -0.985801
ltoes -28.9825
175
root -3.49364 16.0397 0.230378 -175.96 -92.4646 189.518
lowerback 10.1429 -0.75767 -5.95102
upperback -10.7112 -2.30905 1.01212
thorax -17.7565 -0.311002 5.12859
lowerneck -20.2398 4.87623 6.89856
upperneck 17.9564 6.20692 -7.19443
head 9.45337 2.54449 -2.75468
rclavicle -3.42282e-015 2.10712e-014
rhumerus -78.9857 15.4601 -90.1933
rradius 48.6928
rwrist -21.4806
rhand -28.4772 -20.3428
rfingers 7.12502
rthumb -1.8468 -50.3146
lclavicle -3.42282e-015 2.10712e-014
lhumerus -46.4646 -20.8366 95.0627
lradius 105.112
lwrist 0.397773
lhand -35.1679 31.0389
lfingers 7.12502
lthumb -8.30678 60.8556
rfemur -39.8373 11.1098 21.2205
rtibia 19.9223
rfoot -25.5525 -19.4483
rtoes -16.7178
lfemur 15.7963 -16.7411 -37.7432
ltibia 7.3467
lfoot -18.5508 5.44368
ltoes -31.6307
176
root -4.31152 16.1567 0.188475 -190.205 -92.2466 204.216
lowerback 9.07205 -0.845711 -6.05403
upperback -10.9956 -2.46829 0.690965
thorax -17.3958 -0.430876 4.81428
lowerneck -20.4062 5.20282 7.11775
upperneck 18.4968 6.59646 -7.126
head 9.70857 2.73779 -2.71015
rclavicle 3.62782e-015 -2.5842e-015
rhumerus -78.8186 15.3763 -90.4354
rradius 48.2861
rwrist -23.4865
rhand -29.7656 -17.8338
rfingers 7.12502
rthumb -3.09112 -47.7911
lclavicle 3.62782e-015 -2.5842e-015
lhumerus -48.2207 -21.4494 95.855
lradius 106.418
lwrist 0.234623
lhand -36.0447 31.46
lfingers 7.12502
lthumb -9.15294 61.2414
rfemur -38.8166 14.1578 19.3936
rtibia 13.3843
rfoot -24.8232 -21.7164
rtoes -26.7873
lfemur 16.4905 -14.9901 -37.5866
ltibia 8.12009
lfoot -16.112 12.5948
ltoes -33.0795
